<svg height="402.77333pt" viewBox="0 0 402.77333 402.77333" width="402.77333pt" xmlns="http://www.w3.org/2000/svg"><path d="m27.308594 27.308594h368.636718v368.636718h-368.636718zm0 0" fill="#0e65e5"/><path d="m395.945312 402.773438h-368.636718c-3.773438 0-6.828125-3.054688-6.828125-6.828126v-368.636718c0-3.773438 3.054687-6.828125 6.828125-6.828125h368.636718c3.769532 0 6.828126 3.054687 6.828126 6.828125v368.636718c0 3.773438-3.058594 6.828126-6.828126 6.828126zm-361.8125-13.652344h354.988282v-354.988282h-354.988282zm0 0" fill="#0e65e5"/><path d="m6.828125 6.828125h368.636719v368.636719h-368.636719zm0 0" fill="#d7e9ff"/><path d="m375.464844 382.292969h-368.636719c-3.773437 0-6.828125-3.054688-6.828125-6.828125v-368.636719c0-3.773437 3.054688-6.828125 6.828125-6.828125h368.636719c3.773437 0 6.828125 3.054688 6.828125 6.828125v368.636719c0 3.773437-3.054688 6.828125-6.828125 6.828125zm-361.8125-13.652344h354.988281v-354.988281h-354.988281zm0 0" fill="#0e65e5"/><path d="m88.746094 34.132812h-61.4375c-3.773438 0-6.828125-3.050781-6.828125-6.824218 0-3.773438 3.054687-6.828125 6.828125-6.828125h61.4375c3.769531 0 6.828125 3.054687 6.828125 6.828125 0 3.773437-3.058594 6.824218-6.828125 6.824218zm0 0" fill="#fff"/><path d="m20.480469 191.148438 88.746093 40.957031v-81.917969zm0 0" fill="#2a8ee6"/><path d="m109.226562 238.933594c-.972656 0-1.949218-.207032-2.859374-.625l-88.746094-40.960938c-2.421875-1.121094-3.96875-3.539062-3.96875-6.199218 0-2.664063 1.546875-5.082032 3.96875-6.203126l88.746094-40.957031c2.109374-.96875 4.578124-.808593 6.539062.445313 1.960938 1.257812 3.148438 3.425781 3.148438 5.753906v81.917969c0 2.328125-1.1875 4.496093-3.148438 5.753906-1.117188.714844-2.394531 1.074219-3.679688 1.074219zm-72.457031-47.785156 65.628907 30.292968v-60.589844zm0 0" fill="#0e65e5"/><path d="m361.8125 191.148438-88.746094 40.957031v-81.917969zm0 0" fill="#2a8ee6"/><path d="m273.066406 238.933594c-1.28125 0-2.5625-.359375-3.679687-1.074219-1.960938-1.257813-3.148438-3.425781-3.148438-5.753906v-81.917969c0-2.328125 1.1875-4.496094 3.148438-5.753906 1.964843-1.253906 4.4375-1.414063 6.539062-.445313l88.746094 40.957031c2.421875 1.121094 3.96875 3.539063 3.96875 6.203126 0 2.660156-1.546875 5.078124-3.96875 6.199218l-88.746094 40.960938c-.910156.417968-1.886719.625-2.859375.625zm6.828125-78.082032v60.589844l65.628907-30.292968zm0 0" fill="#0e65e5"/><path d="m273.066406 197.972656h-163.839844c-3.769531 0-6.828124-3.050781-6.828124-6.824218 0-3.773438 3.058593-6.828126 6.828124-6.828126h163.839844c3.769532 0 6.828125 3.054688 6.828125 6.828126 0 3.773437-3.058593 6.824218-6.828125 6.824218zm0 0" fill="#0e65e5"/><g fill="#fff"><path d="m122.878906 389.121094c-3.769531 0-6.824218-3.054688-6.824218-6.828125v-27.304688c0-3.773437 3.054687-6.828125 6.824218-6.828125 3.769532 0 6.828125 3.054688 6.828125 6.828125v27.304688c0 3.773437-3.058593 6.828125-6.828125 6.828125zm0 0"/><path d="m136.535156 375.464844h-27.308594c-3.769531 0-6.828124-3.050782-6.828124-6.824219s3.058593-6.828125 6.828124-6.828125h27.308594c3.769532 0 6.824219 3.054688 6.824219 6.828125s-3.054687 6.824219-6.824219 6.824219zm0 0"/></g></svg>